<?xml version="1.0" encoding="utf-8"?>
<!-- Generator: Adobe Illustrator 20.1.0, SVG Export Plug-In . SVG Version: 6.00 Build 0)  -->
<svg version="1.1" id="Layer_1" xmlns="http://www.w3.org/2000/svg" xmlns:xlink="http://www.w3.org/1999/xlink" x="0px" y="0px"
	 viewBox="0 0 110.7 154" style="enable-background:new 0 0 110.7 154;" xml:space="preserve">
<style type="text/css">
	.st0{fill:none;stroke:#FFFFFF; stroke-width: .5px; stroke-miterlimit:10;}
</style>
<g>
	<path class="st0" d="M94.8,76.3v65.9H12.6V51.6L7.1,36.1v112.8h93.1V70C98.6,72.4,96.7,74.5,94.8,76.3z"/>
	<path class="st0" d="M24.1,122.4h14.1V68.6l15.7-49.5c3.5-0.6,7.7-0.6,12.9-0.6c14.7,0,26.4,10.2,26.4,24.8
		c0,14.7-11.9,26.5-26.5,26.5c-1.7,0-3.4-0.2-5.1-0.5v12c1.7,0.2,3.4,0.3,5.1,0.3c21.2,0,38.4-17.2,38.4-38.4
		c0-18.2-12.7-33.4-29.6-37.4H58C57.8,6,57.7,6,57.5,6H42.9L31.3,49L19.6,6H4.4l19.8,62.5V122.4z"/>
	<polygon class="st0" points="54.4,31.4 43,69.7 43,136.3 86.1,136.3 86.1,122.3 57.5,122.3 57.5,31.4 	"/>
</g>
</svg>
