<?xml version="1.0" encoding="utf-8"?>
<!-- Generator: Adobe Illustrator 20.1.0, SVG Export Plug-In . SVG Version: 6.00 Build 0)  -->
<svg version="1.1" id="Layer_1" xmlns="http://www.w3.org/2000/svg" xmlns:xlink="http://www.w3.org/1999/xlink" x="0px" y="0px"
	 viewBox="0 0 299.8 145.4" style="enable-background:new 0 0 299.8 145.4;" xml:space="preserve">
<style type="text/css">
	.st0{fill:#FFFFFF;}
	.st1{fill:#BA131A;}
</style>
<g>
	<g>
		<g>
			<path class="st0" d="M112.6,81.8v5.1H109v-5l-5.8-10.7h3.6l4,7l3.9-7h3.6L112.6,81.8z"/>
			<path class="st0" d="M135.6,79c0,4.5-3.6,8-8.4,8c-4.8,0-8.4-3.5-8.4-8c0-4.6,3.6-8,8.4-8C132,71.1,135.6,74.5,135.6,79z
				 M122.4,79c0,2.8,2.2,4.9,4.8,4.9c2.6,0,4.8-2.2,4.8-4.9s-2.1-4.9-4.8-4.9C124.6,74.2,122.4,76.3,122.4,79z"/>
			<path class="st0" d="M144.8,84c2.1,0,3.5-1.4,3.5-3.6v-9.1h3.5v9.1c0,4.2-2.7,6.7-7,6.7c-4.4,0-7.1-2.6-7.1-6.7v-9.1h3.5v9.1
				C141.2,82.6,142.7,84,144.8,84z"/>
			<path class="st0" d="M158.2,71.2l7.6,10.1V71.2h3.4v15.7H166l-7.6-10.1v10.1H155V71.2H158.2z"/>
			<path class="st0" d="M183.2,79h3.1v6c-1.7,1.2-4.2,2-6.4,2c-4.8,0-8.4-3.5-8.4-8c0-4.5,3.7-8,8.6-8c2.3,0,4.7,0.9,6.3,2.3l-2,2.5
				c-1.2-1.1-2.8-1.8-4.3-1.8c-2.8,0-4.9,2.1-4.9,4.9c0,2.8,2.2,4.9,5,4.9c0.9,0,2.1-0.3,3.1-0.9V79z"/>
		</g>
		<g>
			<path class="st0" d="M119.7,98.9c0,3.7-2.3,5.8-6.3,5.8h-3.1v4.5h-3.5V93.4h6.7C117.4,93.4,119.7,95.4,119.7,98.9z M116.3,99
				c0-1.7-1.1-2.6-3.1-2.6h-2.9v5.3h2.9C115.2,101.7,116.3,100.8,116.3,99z"/>
			<path class="st0" d="M131.6,109.1l-2.5-4.5h-0.3h-3.3v4.5H122V93.4h6.8c4.1,0,6.4,2,6.4,5.5c0,2.4-1,4.2-2.9,5.1l3.3,5.2H131.6z
				 M125.5,101.7h3.3c2,0,3.1-0.9,3.1-2.7c0-1.7-1.1-2.6-3.1-2.6h-3.3V101.7z"/>
			<path class="st0" d="M153.9,101.3c0,4.5-3.6,8-8.4,8c-4.8,0-8.4-3.5-8.4-8c0-4.6,3.6-8,8.4-8C150.3,93.3,153.9,96.7,153.9,101.3z
				 M140.7,101.3c0,2.8,2.2,4.9,4.8,4.9c2.6,0,4.8-2.2,4.8-4.9s-2.1-4.9-4.8-4.9C142.9,96.4,140.7,98.5,140.7,101.3z"/>
			<path class="st0" d="M167.6,93.4l0,2.9h-7.7v3.9h7.1v3h-7.1v5.9h-3.5V93.4H167.6z"/>
			<path class="st0" d="M181.6,93.4v2.9h-8.4v3.4h7.6v2.9h-7.6v3.5h8.7v2.9h-12.2V93.4H181.6z"/>
			<path class="st0" d="M190.1,96.3c-1.2,0-2,0.4-2,1.3c0,2.9,8.4,1.3,8.3,6.9c0,3.1-2.7,4.7-6.1,4.7c-2.6,0-5.2-1-6.9-2.5l1.4-2.9
				c1.6,1.4,3.9,2.4,5.6,2.4c1.5,0,2.3-0.5,2.3-1.5c0-3-8.4-1.2-8.4-6.8c0-2.8,2.4-4.6,6.1-4.6c2.2,0,4.4,0.7,6,1.7l-1.4,2.9
				C193.3,96.9,191.3,96.3,190.1,96.3z"/>
			<path class="st0" d="M204.3,96.3c-1.2,0-2,0.4-2,1.3c0,2.9,8.4,1.3,8.3,6.9c0,3.1-2.7,4.7-6.1,4.7c-2.6,0-5.2-1-6.9-2.5l1.4-2.9
				c1.6,1.4,3.9,2.4,5.6,2.4c1.5,0,2.3-0.5,2.3-1.5c0-3-8.4-1.2-8.4-6.8c0-2.8,2.4-4.6,6.1-4.6c2.2,0,4.4,0.7,6,1.7l-1.4,2.9
				C207.6,96.9,205.6,96.3,204.3,96.3z"/>
			<path class="st0" d="M216.7,93.4v15.7h-3.5V93.4H216.7z"/>
			<path class="st0" d="M236,101.3c0,4.5-3.6,8-8.4,8c-4.8,0-8.4-3.5-8.4-8c0-4.6,3.6-8,8.4-8C232.3,93.3,236,96.7,236,101.3z
				 M222.7,101.3c0,2.8,2.2,4.9,4.8,4.9c2.6,0,4.8-2.2,4.8-4.9s-2.1-4.9-4.8-4.9C224.9,96.4,222.7,98.5,222.7,101.3z"/>
			<path class="st0" d="M241.5,93.4l7.6,10.1V93.4h3.4v15.7h-3.2l-7.6-10.1v10.1h-3.4V93.4H241.5z"/>
			<path class="st0" d="M266.3,106.1h-7.3l-1.2,3.1h-3.7l6.8-15.7h3.7l6.7,15.7h-3.8L266.3,106.1z M265.2,103.2l-2.5-6.1l-2.5,6.1
				H265.2z"/>
			<path class="st0" d="M276.5,93.4V106h6.7v3.1H273V93.4H276.5z"/>
			<path class="st0" d="M290.8,96.3c-1.2,0-2,0.4-2,1.3c0,2.9,8.4,1.3,8.3,6.9c0,3.1-2.7,4.7-6.1,4.7c-2.6,0-5.2-1-6.9-2.5l1.4-2.9
				c1.6,1.4,3.9,2.4,5.6,2.4c1.5,0,2.3-0.5,2.3-1.5c0-3-8.4-1.2-8.4-6.8c0-2.8,2.4-4.6,6.1-4.6c2.2,0,4.4,0.7,6,1.7l-1.4,2.9
				C294,96.9,292.1,96.3,290.8,96.3z"/>
		</g>
		<g>
			<path class="st1" d="M109.6,114.6v12.6h6.7v3.1h-10.3v-15.7H109.6z"/>
			<path class="st1" d="M128.9,127.3h-7.3l-1.2,3.1h-3.7l6.8-15.7h3.7l6.7,15.7h-3.8L128.9,127.3z M127.8,124.4l-2.5-6.1l-2.5,6.1
				H127.8z"/>
			<path class="st1" d="M136.5,114.6l3.3,11.8l3.3-11.8h3.5l3.3,11.8l3.3-11.8h3.6l-5.2,15.7h-3.7l-3.2-11.2l-3.2,11.2h-3.7
				l-5.2-15.7H136.5z"/>
			<path class="st1" d="M169.9,114.6v3h-4.8v12.7h-3.5v-12.7h-4.8v-3H169.9z"/>
			<path class="st1" d="M186.7,122.5c0,4.5-3.6,8-8.4,8c-4.8,0-8.4-3.5-8.4-8c0-4.6,3.6-8,8.4-8
				C183.1,114.5,186.7,117.9,186.7,122.5z M173.5,122.5c0,2.8,2.2,4.9,4.8,4.9c2.6,0,4.8-2.2,4.8-4.9s-2.1-4.9-4.8-4.9
				C175.6,117.6,173.5,119.7,173.5,122.5z"/>
			<path class="st1" d="M192.2,114.6l7.6,10.1v-10.1h3.4v15.7H200l-7.6-10.1v10.1H189v-15.7H192.2z"/>
		</g>
	</g>
	<g>
		<path class="st0" d="M1.5,1.1h15.2L28.4,44L40,1.1h15.2L35.4,63.7v53.8H21.3V63.7L1.5,1.1z"/>
	</g>
</g>
<g>
	<path class="st1" d="M91.9,71.4v65.9H9.7V46.6L4.2,31.2V144h93.1V65C95.7,67.5,93.9,69.6,91.9,71.4z"/>
	<path class="st0" d="M90.4,38.4c0,14.7-11.9,26.5-26.5,26.5c-1.7,0-3.4-0.2-5.1-0.5v12c1.7,0.2,3.4,0.3,5.1,0.3
		c21.2,0,38.4-17.2,38.4-38.4C102.2,20.2,89.6,5,72.6,1H55.1c-1.3,0.3-2.6,0.7-3.9,1.1l-4.3,13.2c4-1.7,9.6-1.8,17.1-1.8
		C78.7,13.6,90.4,23.7,90.4,38.4z"/>
	<polygon class="st0" points="83.2,117.4 54.6,117.4 54.6,26.5 51.6,26.5 40.1,64.8 40.1,131.4 83.2,131.4 	"/>
</g>
</svg>
